<?xml version="1.0" ?><!DOCTYPE svg  PUBLIC '-//W3C//DTD SVG 1.1//EN'  'http://www.w3.org/Graphics/SVG/1.1/DTD/svg11.dtd'><svg enable-background="new 0 0 512 512" height="512px" id="Layer_1" version="1.1" viewBox="0 0 512 512" width="512px" xml:space="preserve" xmlns="http://www.w3.org/2000/svg" xmlns:xlink="http://www.w3.org/1999/xlink"><g><path clip-rule="evenodd" d="M25.701,0h460.897C500.509,0,512,11.492,512,25.707v460.892   c0,13.91-11.491,25.401-25.401,25.401H25.701C11.492,512,0,500.509,0,486.599V25.707C0,11.492,11.492,0,25.701,0L25.701,0z    M256.145,355.343c-43.238,0-84.369-35.684-82.25-81.041c0.3-8.174,5.136-14.52,14.209-14.52c7.864,0,14.209,6.346,14.209,14.52   c0.31,29.329,24.192,52.922,53.831,52.922c29.35,0,53.222-23.593,53.531-52.922c0.311-8.174,6.346-14.52,14.51-14.52   c9.073,0,13.91,6.346,14.22,14.52C340.225,319.659,299.404,355.343,256.145,355.343L256.145,355.343z M248.89,258.273   l-27.52-27.825l-4.836-4.842c-4.237-4.232-5.446-10.582-3.028-16.028c0.61-1.509,1.819-3.023,3.028-4.537l32.356-32.357   c5.746-5.746,15.119-5.746,20.565,0c5.746,5.746,5.746,14.819,0,20.565l-22.074,22.074l22.074,22.379   c5.746,5.446,5.746,14.819,0,20.57C264.009,263.709,254.636,263.709,248.89,258.273L248.89,258.273z M161.493,211.093   c0,7.859-6.655,14.514-14.52,14.514c-8.164,0-14.509-6.655-14.509-14.514v-45.972c0-7.859,6.345-14.515,14.509-14.515   c7.864,0,14.52,6.655,14.52,14.515V211.093z M350.807,211.093v-45.972c0-7.859,6.655-14.515,14.509-14.515   c7.875,0,14.53,6.655,14.53,14.515v45.972c0,7.859-6.655,14.514-14.53,14.514C357.462,225.607,350.807,218.952,350.807,211.093   L350.807,211.093z M66.832,256.155c0,104.334,84.679,189.313,189.313,189.313c104.335,0,189.323-84.979,189.323-189.313   c0-104.639-84.988-189.318-189.323-189.318C151.51,66.837,66.832,151.516,66.832,256.155L66.832,256.155z" fill="#010101" fill-rule="evenodd"/></g></svg>